<svg width="24" height="24" viewBox="0 0 24 24" fill="none" xmlns="http://www.w3.org/2000/svg">
<path d="M7.5 22.5C8.32843 22.5 9 21.8284 9 21C9 20.1716 8.32843 19.5 7.5 19.5C6.67157 19.5 6 20.1716 6 21C6 21.8284 6.67157 22.5 7.5 22.5Z" fill="#676767"/>
<path d="M18 22.5C18.8284 22.5 19.5 21.8284 19.5 21C19.5 20.1716 18.8284 19.5 18 19.5C17.1716 19.5 16.5 20.1716 16.5 21C16.5 21.8284 17.1716 22.5 18 22.5Z" fill="#676767"/>
<path d="M21 5.25003H4.365L3.75 2.10003C3.71494 1.92807 3.62068 1.77386 3.48364 1.66423C3.3466 1.5546 3.17546 1.49649 3 1.50003H0V3.00003H2.385L5.25 17.4C5.28506 17.572 5.37932 17.7262 5.51636 17.8358C5.6534 17.9455 5.82454 18.0036 6 18H19.5V16.5H6.615L6 13.5H19.5C19.6734 13.5043 19.8429 13.4483 19.9796 13.3416C20.1163 13.235 20.2119 13.0842 20.25 12.915L21.75 6.16503C21.7751 6.05375 21.7745 5.9382 21.7483 5.82718C21.722 5.71616 21.6708 5.61259 21.5985 5.52436C21.5261 5.43613 21.4347 5.36556 21.3309 5.31802C21.2272 5.27048 21.114 5.24723 21 5.25003ZM18.9 12H5.715L4.665 6.75003H20.0625L18.9 12Z" fill="#676767"/>
</svg>
