<svg width="22" height="22" viewBox="0 0 22 22" fill="none" xmlns="http://www.w3.org/2000/svg">
<path fill-rule="evenodd" clip-rule="evenodd" d="M4.10667 1.46667H4.03334C3.69747 1.46667 3.40854 1.46667 3.15334 1.52681C2.75827 1.62121 2.39705 1.82314 2.10971 2.11023C1.82236 2.39732 1.6201 2.75836 1.52534 3.15334C1.46667 3.40854 1.46667 3.69601 1.46667 4.03334V7.70001C1.46667 8.03587 1.46667 8.32481 1.52681 8.58001C1.62121 8.97508 1.82314 9.33629 2.11023 9.62364C2.39732 9.91099 2.75836 10.1133 3.15334 10.208C3.40854 10.2667 3.69601 10.2667 4.03334 10.2667H7.70001C8.03587 10.2667 8.32481 10.2667 8.58001 10.2065C8.97507 10.1121 9.33629 9.91021 9.62364 9.62312C9.91099 9.33603 10.1132 8.97499 10.208 8.58001C10.2667 8.32481 10.2667 8.03734 10.2667 7.70001V4.03334C10.2667 3.69747 10.2667 3.40854 10.2065 3.15334C10.1121 2.75827 9.91021 2.39705 9.62312 2.10971C9.33603 1.82236 8.97499 1.6201 8.58001 1.52534C8.32481 1.46667 8.03734 1.46667 7.70001 1.46667H4.10667ZM3.49507 2.95387C3.55814 2.93921 3.65641 2.93334 4.10667 2.93334H7.62667C8.07841 2.93334 8.17521 2.93774 8.23827 2.95387C8.37003 2.98538 8.49047 3.05277 8.58626 3.14855C8.68205 3.24434 8.74943 3.36479 8.78094 3.49654C8.79561 3.55814 8.80001 3.65494 8.80001 4.10667V7.62667C8.80001 8.07841 8.79561 8.17521 8.77947 8.23828C8.74797 8.37003 8.68058 8.49047 8.5848 8.58626C8.48901 8.68205 8.36856 8.74944 8.23681 8.78094C8.17667 8.79414 8.07987 8.80001 7.62667 8.80001H4.10667C3.65494 8.80001 3.55814 8.79561 3.49507 8.77948C3.36332 8.74797 3.24288 8.68058 3.14709 8.5848C3.0513 8.48901 2.98391 8.36856 2.95241 8.23681C2.93921 8.17668 2.93334 8.07987 2.93334 7.62667V4.10667C2.93334 3.65494 2.93774 3.55814 2.95387 3.49507C2.98538 3.36332 3.05276 3.24288 3.14855 3.14709C3.24434 3.0513 3.36479 2.98391 3.49654 2.95241L3.49507 2.95387ZM14.3733 1.46667H14.3C13.9641 1.46667 13.6752 1.46667 13.42 1.52681C13.0249 1.62121 12.6637 1.82314 12.3764 2.11023C12.089 2.39732 11.8868 2.75836 11.792 3.15334C11.7333 3.40854 11.7333 3.69601 11.7333 4.03334V7.70001C11.7333 8.03587 11.7333 8.32481 11.7935 8.58001C11.8879 8.97508 12.0898 9.33629 12.3769 9.62364C12.664 9.91099 13.025 10.1133 13.42 10.208C13.6752 10.2667 13.9627 10.2667 14.3 10.2667H17.9667C18.3025 10.2667 18.5915 10.2667 18.8467 10.2065C19.2417 10.1121 19.603 9.91021 19.8903 9.62312C20.1777 9.33603 20.3799 8.97499 20.4747 8.58001C20.5333 8.32481 20.5333 8.03734 20.5333 7.70001V4.03334C20.5333 3.69747 20.5333 3.40854 20.4732 3.15334C20.3788 2.75827 20.1769 2.39705 19.8898 2.10971C19.6027 1.82236 19.2417 1.6201 18.8467 1.52534C18.5915 1.46667 18.304 1.46667 17.9667 1.46667H14.3733ZM13.7617 2.95387C13.8248 2.93921 13.9231 2.93334 14.3733 2.93334H17.8933C18.3451 2.93334 18.4419 2.93774 18.5049 2.95387C18.6367 2.98538 18.7571 3.05277 18.8529 3.14855C18.9487 3.24434 19.0161 3.36479 19.0476 3.49654C19.0623 3.55814 19.0667 3.65494 19.0667 4.10667V7.62667C19.0667 8.07841 19.0608 8.17521 19.0461 8.23828C19.0146 8.37003 18.9473 8.49047 18.8515 8.58626C18.7557 8.68205 18.6352 8.74944 18.5035 8.78094C18.4419 8.79561 18.3451 8.80001 17.8933 8.80001H14.3733C13.9216 8.80001 13.8248 8.79561 13.7617 8.77948C13.63 8.74797 13.5095 8.68058 13.4138 8.5848C13.318 8.48901 13.2506 8.36856 13.2191 8.23681C13.2059 8.17668 13.2 8.07987 13.2 7.62667V4.10667C13.2 3.65494 13.2044 3.55814 13.2205 3.49507C13.252 3.36332 13.3194 3.24288 13.4152 3.14709C13.511 3.0513 13.6315 2.98391 13.7632 2.95241L13.7617 2.95387ZM4.03334 11.7333H7.70001C8.03587 11.7333 8.32481 11.7333 8.58001 11.7935C8.97507 11.8879 9.33629 12.0898 9.62364 12.3769C9.91099 12.664 10.1132 13.025 10.208 13.42C10.2667 13.6752 10.2667 13.9627 10.2667 14.3V17.9667C10.2667 18.3025 10.2667 18.5915 10.2065 18.8467C10.1121 19.2417 9.91021 19.603 9.62312 19.8903C9.33603 20.1777 8.97499 20.3799 8.58001 20.4747C8.32481 20.5333 8.03734 20.5333 7.70001 20.5333H4.03334C3.69747 20.5333 3.40854 20.5333 3.15334 20.4732C2.75827 20.3788 2.39705 20.1769 2.10971 19.8898C1.82236 19.6027 1.6201 19.2417 1.52534 18.8467C1.46667 18.5915 1.46667 18.304 1.46667 17.9667V14.3C1.46667 13.9641 1.46667 13.6752 1.52681 13.42C1.62121 13.0249 1.82314 12.6637 2.11023 12.3764C2.39732 12.089 2.75836 11.8868 3.15334 11.792C3.40854 11.7333 3.69601 11.7333 4.03334 11.7333ZM4.10667 13.2C3.65494 13.2 3.55814 13.2044 3.49507 13.2205C3.36332 13.252 3.24288 13.3194 3.14709 13.4152C3.0513 13.511 2.98391 13.6315 2.95241 13.7632C2.93921 13.8233 2.93334 13.9201 2.93334 14.3733V17.8933C2.93334 18.3451 2.93774 18.4419 2.95387 18.5049C2.98538 18.6367 3.05276 18.7571 3.14855 18.8529C3.24434 18.9487 3.36479 19.0161 3.49654 19.0476C3.55814 19.0623 3.65494 19.0667 4.10667 19.0667H7.62667C8.07841 19.0667 8.17521 19.0608 8.23827 19.0461C8.37003 19.0146 8.49047 18.9473 8.58626 18.8515C8.68205 18.7557 8.74943 18.6352 8.78094 18.5035C8.79561 18.4419 8.80001 18.3451 8.80001 17.8933V14.3733C8.80001 13.9216 8.79561 13.8248 8.77947 13.7617C8.74797 13.63 8.68058 13.5095 8.5848 13.4138C8.48901 13.318 8.36856 13.2506 8.23681 13.2191C8.17667 13.2059 8.07987 13.2 7.62667 13.2H4.10667ZM14.3733 11.7333H14.3C13.9641 11.7333 13.6752 11.7333 13.42 11.7935C13.0249 11.8879 12.6637 12.0898 12.3764 12.3769C12.089 12.664 11.8868 13.025 11.792 13.42C11.7333 13.6752 11.7333 13.9627 11.7333 14.3V17.9667C11.7333 18.3025 11.7333 18.5915 11.7935 18.8467C11.8879 19.2417 12.0898 19.603 12.3769 19.8903C12.664 20.1777 13.025 20.3799 13.42 20.4747C13.6752 20.5348 13.9641 20.5348 14.3 20.5348H17.9667C18.3025 20.5348 18.5915 20.5348 18.8467 20.4747C19.2415 20.38 19.6024 20.178 19.8895 19.8909C20.1765 19.6038 20.3786 19.2429 20.4732 18.8481C20.5333 18.5929 20.5333 18.304 20.5333 17.9681V14.3C20.5333 13.9641 20.5333 13.6752 20.4732 13.42C20.3788 13.0249 20.1769 12.6637 19.8898 12.3764C19.6027 12.089 19.2417 11.8868 18.8467 11.792C18.5915 11.7333 18.304 11.7333 17.9667 11.7333H14.3733ZM13.7617 13.2205C13.8248 13.2059 13.9231 13.2 14.3733 13.2H17.8933C18.3451 13.2 18.4419 13.2044 18.5049 13.2205C18.6367 13.252 18.7571 13.3194 18.8529 13.4152C18.9487 13.511 19.0161 13.6315 19.0476 13.7632C19.0623 13.8248 19.0667 13.9216 19.0667 14.3733V17.8933C19.0667 18.3451 19.0608 18.4419 19.0461 18.5049C19.0146 18.6367 18.9473 18.7571 18.8515 18.8529C18.7557 18.9487 18.6352 19.0161 18.5035 19.0476C18.4419 19.0623 18.3451 19.0667 17.8933 19.0667H14.3733C13.9216 19.0667 13.8248 19.0608 13.7617 19.0461C13.63 19.0146 13.5095 18.9473 13.4138 18.8515C13.318 18.7557 13.2506 18.6352 13.2191 18.5035C13.2059 18.4433 13.2 18.3465 13.2 17.8933V14.3733C13.2 13.9216 13.2044 13.8248 13.2205 13.7617C13.252 13.63 13.3194 13.5095 13.4152 13.4138C13.511 13.318 13.6315 13.2506 13.7632 13.2191L13.7617 13.2205Z" fill="black"/>
</svg>
