<svg width="20" height="21" viewBox="0 0 20 21" fill="none" xmlns="http://www.w3.org/2000/svg">
<path d="M11 14.9999H5.00001C4.73479 14.9999 4.48044 15.1053 4.2929 15.2928C4.10537 15.4804 4.00001 15.7347 4.00001 15.9999C4.00001 16.2652 4.10537 16.5195 4.2929 16.7071C4.48044 16.8946 4.73479 16.9999 5.00001 16.9999H11C11.2652 16.9999 11.5196 16.8946 11.7071 16.7071C11.8947 16.5195 12 16.2652 12 15.9999C12 15.7347 11.8947 15.4804 11.7071 15.2928C11.5196 15.1053 11.2652 14.9999 11 14.9999ZM7.00001 8.99995H9.00001C9.26522 8.99995 9.51958 8.89459 9.70711 8.70705C9.89465 8.51952 10 8.26516 10 7.99995C10 7.73473 9.89465 7.48038 9.70711 7.29284C9.51958 7.1053 9.26522 6.99995 9.00001 6.99995H7.00001C6.73479 6.99995 6.48044 7.1053 6.2929 7.29284C6.10537 7.48038 6.00001 7.73473 6.00001 7.99995C6.00001 8.26516 6.10537 8.51952 6.2929 8.70705C6.48044 8.89459 6.73479 8.99995 7.00001 8.99995V8.99995ZM19 10.9999H16V1.99995C16.0007 1.82374 15.9548 1.65047 15.867 1.49769C15.7792 1.34491 15.6526 1.21805 15.5 1.12995C15.348 1.04218 15.1755 0.995972 15 0.995972C14.8245 0.995972 14.652 1.04218 14.5 1.12995L11.5 2.84995L8.50001 1.12995C8.34799 1.04218 8.17554 0.995972 8.00001 0.995972C7.82447 0.995972 7.65203 1.04218 7.50001 1.12995L4.50001 2.84995L1.50001 1.12995C1.34799 1.04218 1.17554 0.995972 1.00001 0.995972C0.824471 0.995972 0.652027 1.04218 0.500008 1.12995C0.347404 1.21805 0.220789 1.34491 0.132986 1.49769C0.0451828 1.65047 -0.000691685 1.82374 7.88288e-06 1.99995V17.9999C7.88288e-06 18.7956 0.316078 19.5587 0.878688 20.1213C1.4413 20.6839 2.20436 20.9999 3.00001 20.9999H17C17.7957 20.9999 18.5587 20.6839 19.1213 20.1213C19.6839 19.5587 20 18.7956 20 17.9999V11.9999C20 11.7347 19.8947 11.4804 19.7071 11.2928C19.5196 11.1053 19.2652 10.9999 19 10.9999ZM3.00001 18.9999C2.73479 18.9999 2.48044 18.8946 2.2929 18.7071C2.10536 18.5195 2.00001 18.2652 2.00001 17.9999V3.72995L4.00001 4.86995C4.15435 4.95056 4.32589 4.99266 4.50001 4.99266C4.67413 4.99266 4.84567 4.95056 5.00001 4.86995L8.00001 3.14995L11 4.86995C11.1543 4.95056 11.3259 4.99266 11.5 4.99266C11.6741 4.99266 11.8457 4.95056 12 4.86995L14 3.72995V17.9999C14.0027 18.3411 14.0636 18.6793 14.18 18.9999H3.00001ZM18 17.9999C18 18.2652 17.8947 18.5195 17.7071 18.7071C17.5196 18.8946 17.2652 18.9999 17 18.9999C16.7348 18.9999 16.4804 18.8946 16.2929 18.7071C16.1054 18.5195 16 18.2652 16 17.9999V12.9999H18V17.9999ZM11 10.9999H5.00001C4.73479 10.9999 4.48044 11.1053 4.2929 11.2928C4.10537 11.4804 4.00001 11.7347 4.00001 11.9999C4.00001 12.2652 4.10537 12.5195 4.2929 12.7071C4.48044 12.8946 4.73479 12.9999 5.00001 12.9999H11C11.2652 12.9999 11.5196 12.8946 11.7071 12.7071C11.8947 12.5195 12 12.2652 12 11.9999C12 11.7347 11.8947 11.4804 11.7071 11.2928C11.5196 11.1053 11.2652 10.9999 11 10.9999Z" fill="black"/>
</svg>
