<svg width="125" height="32" viewBox="0 0 125 32" fill="none" xmlns="http://www.w3.org/2000/svg">
<path d="M1.07812 9.8125C1.07812 9.53906 1.10156 9.30078 1.14844 9.09766C1.19531 8.89453 1.28516 8.72656 1.41797 8.59375C1.55078 8.45312 1.73438 8.34766 1.96875 8.27734C2.20312 8.20703 2.50781 8.17188 2.88281 8.17188H8.10938C8.5625 8.17188 8.90625 8.23828 9.14062 8.37109C9.38281 8.50391 9.55078 8.67188 9.64453 8.875C9.74609 9.07031 9.80078 9.28125 9.80859 9.50781C9.81641 9.72656 9.82031 9.92969 9.82031 10.1172V23.1016C9.82031 23.2812 9.80469 23.4805 9.77344 23.6992C9.74219 23.918 9.66406 24.125 9.53906 24.3203C9.41406 24.5078 9.22266 24.668 8.96484 24.8008C8.70703 24.9336 8.35156 25 7.89844 25H2.88281C2.50781 25 2.20312 24.9648 1.96875 24.8945C1.73438 24.8242 1.55078 24.7227 1.41797 24.5898C1.28516 24.457 1.19531 24.2891 1.14844 24.0859C1.10156 23.8828 1.07812 23.6445 1.07812 23.3711V9.8125ZM12 14.6289C12 14.3633 12.0234 14.1289 12.0703 13.9258C12.1172 13.7148 12.207 13.543 12.3398 13.4102C12.4727 13.2773 12.6562 13.1758 12.8906 13.1055C13.125 13.0352 13.4297 13 13.8047 13H18.5977C18.9492 13 19.25 13.0352 19.5 13.1055C19.7578 13.1758 19.9414 13.2969 20.0508 13.4688C20.1523 13.3984 20.2734 13.3242 20.4141 13.2461C20.5625 13.1602 20.7227 13.082 20.8945 13.0117C21.0664 12.9414 21.25 12.8828 21.4453 12.8359C21.6406 12.7891 21.8438 12.7656 22.0547 12.7656C22.8047 12.7656 23.3867 13.0234 23.8008 13.5391C24.2227 14.0547 24.4336 14.8125 24.4336 15.8125V24.4492C24.4336 24.582 24.4141 24.6875 24.375 24.7656C24.3438 24.8359 24.3008 24.8906 24.2461 24.9297C24.1992 24.9609 24.1406 24.9805 24.0703 24.9883C24 24.9961 23.9297 25 23.8594 25H23.1094C22.9062 25 22.7734 24.9414 22.7109 24.8242C22.6562 24.707 22.6289 24.582 22.6289 24.4492V15.6953C22.6289 15.25 22.5469 14.9102 22.3828 14.6758C22.2266 14.4414 21.9727 14.3242 21.6211 14.3242C21.4414 14.3242 21.2578 14.375 21.0703 14.4766C20.8906 14.5703 20.7461 14.6719 20.6367 14.7812V23.3594C20.6367 23.6328 20.6133 23.8711 20.5664 24.0742C20.5195 24.2773 20.4297 24.4492 20.2969 24.5898C20.1641 24.7227 19.9805 24.8242 19.7461 24.8945C19.5117 24.9648 19.207 25 18.832 25H13.8047C13.4297 25 13.125 24.9648 12.8906 24.8945C12.6562 24.8242 12.4727 24.7227 12.3398 24.5898C12.207 24.457 12.1172 24.2891 12.0703 24.0859C12.0234 23.8828 12 23.6445 12 23.3711V14.6289ZM34.9336 18.0859L36.5625 13.6914C36.6328 13.4883 36.707 13.3242 36.7852 13.1992C36.8711 13.0664 37.0391 13 37.2891 13H38.5312C38.7578 13 38.8711 13.0664 38.8711 13.1992C38.8711 13.2852 38.8281 13.4258 38.7422 13.6211L34.2539 24.2031C34.1445 24.4688 34.0195 24.668 33.8789 24.8008C33.7461 24.9336 33.5547 25 33.3047 25H31.4531C31.2891 25 31.1523 24.9766 31.043 24.9297C30.9336 24.875 30.8398 24.8086 30.7617 24.7305C30.6914 24.6523 30.6328 24.5703 30.5859 24.4844C30.5391 24.3906 30.5 24.3047 30.4688 24.2266L25.6406 13.9844C25.5703 13.8359 25.5352 13.6992 25.5352 13.5742C25.5352 13.3711 25.6094 13.2266 25.7578 13.1406C25.9062 13.0469 26.0586 13 26.2148 13H31.9336C32.1289 13 32.293 13.0078 32.4258 13.0234C32.5586 13.0391 32.668 13.0703 32.7539 13.1172C32.8398 13.1562 32.9102 13.207 32.9648 13.2695C33.0195 13.332 33.0664 13.4102 33.1055 13.5039L34.9336 18.0859ZM50.5781 23.0547C50.7891 23.0547 50.9805 23.0273 51.1523 22.9727C51.3242 22.9102 51.4766 22.8438 51.6094 22.7734C51.75 22.7031 51.8633 22.6406 51.9492 22.5859C52.043 22.5234 52.1133 22.4922 52.1602 22.4922C52.2305 22.4922 52.2773 22.5039 52.3008 22.5273C52.332 22.5508 52.3672 22.5938 52.4062 22.6562L52.8164 23.2891C52.8555 23.3516 52.875 23.4062 52.875 23.4531C52.875 23.5078 52.8594 23.5508 52.8281 23.582C52.7969 23.6133 52.7656 23.6406 52.7344 23.6641C52.4766 23.8438 52.1602 24.0391 51.7852 24.25C51.4102 24.4531 50.9727 24.6406 50.4727 24.8125C49.9805 24.9844 49.4219 25.125 48.7969 25.2344C48.1719 25.3516 47.4844 25.4102 46.7344 25.4102C46.1484 25.4102 45.5625 25.3633 44.9766 25.2695C44.3906 25.1758 43.8281 25.0273 43.2891 24.8242C42.7578 24.6211 42.2617 24.3555 41.8008 24.0273C41.3398 23.6992 40.9375 23.2969 40.5938 22.8203C40.2578 22.3438 39.9922 21.793 39.7969 21.168C39.6016 20.5352 39.5039 19.8125 39.5039 19C39.5039 18.2031 39.6016 17.4922 39.7969 16.8672C39.9922 16.2344 40.2578 15.6797 40.5938 15.2031C40.9375 14.7266 41.3398 14.3242 41.8008 13.9961C42.2617 13.6602 42.7578 13.3906 43.2891 13.1875C43.8281 12.9766 44.3906 12.8242 44.9766 12.7305C45.5625 12.6367 46.1484 12.5898 46.7344 12.5898C47.7109 12.5898 48.6172 12.6992 49.4531 12.918C50.2969 13.1367 51.0273 13.4961 51.6445 13.9961C52.2617 14.4961 52.7461 15.1523 53.0977 15.9648C53.4492 16.7773 53.625 17.7734 53.625 18.9531V19.6094C53.625 19.75 53.5898 19.8594 53.5195 19.9375C53.4492 20.0156 53.332 20.0547 53.168 20.0547H48.3164C48.3789 20.6328 48.4883 21.1172 48.6445 21.5078C48.8086 21.8906 48.9922 22.1992 49.1953 22.4336C49.4062 22.6602 49.6328 22.8203 49.875 22.9141C50.1172 23.0078 50.3516 23.0547 50.5781 23.0547ZM51.9609 18.6133C51.9609 17.9883 51.9102 17.4727 51.8086 17.0664C51.7148 16.6523 51.5859 16.3242 51.4219 16.082C51.2578 15.832 51.0625 15.6562 50.8359 15.5547C50.6172 15.4531 50.3867 15.4023 50.1445 15.4023C49.9648 15.4023 49.7695 15.4375 49.5586 15.5078C49.3477 15.5781 49.1484 15.7266 48.9609 15.9531C48.7812 16.1797 48.625 16.5039 48.4922 16.9258C48.3672 17.3477 48.293 17.9102 48.2695 18.6133H51.9609ZM55.3359 14.6289C55.3359 14.3633 55.3594 14.1289 55.4062 13.9258C55.4531 13.7148 55.543 13.543 55.6758 13.4102C55.8086 13.2773 55.9922 13.1758 56.2266 13.1055C56.4609 13.0352 56.7656 13 57.1406 13H61.9336C62.2852 13 62.5859 13.0352 62.8359 13.1055C63.0938 13.1758 63.2773 13.2969 63.3867 13.4688C63.4883 13.3984 63.6094 13.3242 63.75 13.2461C63.8984 13.1602 64.0586 13.082 64.2305 13.0117C64.4023 12.9414 64.5859 12.8828 64.7812 12.8359C64.9766 12.7891 65.1797 12.7656 65.3906 12.7656C66.1406 12.7656 66.7227 13.0234 67.1367 13.5391C67.5586 14.0547 67.7695 14.8125 67.7695 15.8125V24.4492C67.7695 24.582 67.75 24.6875 67.7109 24.7656C67.6797 24.8359 67.6367 24.8906 67.582 24.9297C67.5352 24.9609 67.4766 24.9805 67.4062 24.9883C67.3359 24.9961 67.2656 25 67.1953 25H66.4453C66.2422 25 66.1094 24.9414 66.0469 24.8242C65.9922 24.707 65.9648 24.582 65.9648 24.4492V15.6953C65.9648 15.25 65.8828 14.9102 65.7188 14.6758C65.5625 14.4414 65.3086 14.3242 64.957 14.3242C64.7773 14.3242 64.5938 14.375 64.4062 14.4766C64.2266 14.5703 64.082 14.6719 63.9727 14.7812V23.3594C63.9727 23.6328 63.9492 23.8711 63.9023 24.0742C63.8555 24.2773 63.7656 24.4492 63.6328 24.5898C63.5 24.7227 63.3164 24.8242 63.082 24.8945C62.8477 24.9648 62.543 25 62.168 25H57.1406C56.7656 25 56.4609 24.9648 56.2266 24.8945C55.9922 24.8242 55.8086 24.7227 55.6758 24.5898C55.543 24.457 55.4531 24.2891 55.4062 24.0859C55.3594 23.8828 55.3359 23.6445 55.3359 23.3711V14.6289ZM69.1055 16.8438C68.9414 16.8438 68.8594 16.7578 68.8594 16.5859V15.6484C68.8594 15.4844 68.9414 15.4023 69.1055 15.4023H70.3242V12.7422C70.3242 12.625 70.3398 12.5078 70.3711 12.3906C70.4102 12.2734 70.5078 12.1836 70.6641 12.1211L77.1328 9.73047C77.4297 9.62109 77.6758 9.53906 77.8711 9.48438C78.0664 9.42969 78.2383 9.40234 78.3867 9.40234C78.4414 9.40234 78.5 9.41406 78.5625 9.4375C78.6328 9.45312 78.6953 9.48438 78.75 9.53125C78.8125 9.57812 78.8633 9.64453 78.9023 9.73047C78.9414 9.80859 78.9609 9.90625 78.9609 10.0234V15.4023H81.0703C81.2344 15.4023 81.3164 15.4844 81.3164 15.6484V16.5859C81.3164 16.7578 81.2344 16.8438 81.0703 16.8438H78.9609V21.5664C78.9609 22.1211 79.0508 22.5117 79.2305 22.7383C79.418 22.9648 79.7031 23.0781 80.0859 23.0781C80.1719 23.0781 80.2617 23.0703 80.3555 23.0547C80.4492 23.0312 80.5352 23.0117 80.6133 22.9961C80.6992 22.9727 80.7773 22.9531 80.8477 22.9375C80.918 22.9141 80.9766 22.9023 81.0234 22.9023C81.1094 22.9023 81.1523 22.9531 81.1523 23.0547V23.957C81.1523 24.1133 81.1211 24.2188 81.0586 24.2734C80.9961 24.3281 80.9414 24.3633 80.8945 24.3789C80.5977 24.5039 80.2461 24.6289 79.8398 24.7539C79.4414 24.8789 79.0078 24.9883 78.5391 25.082C78.0781 25.1836 77.5898 25.2617 77.0742 25.3164C76.5586 25.3789 76.043 25.4102 75.5273 25.4102C74.7852 25.4102 74.0938 25.3711 73.4531 25.293C72.8203 25.2227 72.2695 25.0547 71.8008 24.7891C71.3398 24.5234 70.9766 24.1289 70.7109 23.6055C70.4531 23.082 70.3242 22.3711 70.3242 21.4727V16.8438H69.1055ZM89.8828 25.4102C89.2969 25.4102 88.7109 25.3633 88.125 25.2695C87.5391 25.1758 86.9766 25.0273 86.4375 24.8242C85.9062 24.6211 85.4102 24.3555 84.9492 24.0273C84.4883 23.6992 84.0859 23.2969 83.7422 22.8203C83.4062 22.3438 83.1406 21.793 82.9453 21.168C82.75 20.5352 82.6523 19.8125 82.6523 19C82.6523 18.2031 82.75 17.4922 82.9453 16.8672C83.1406 16.2344 83.4062 15.6797 83.7422 15.2031C84.0859 14.7266 84.4883 14.3242 84.9492 13.9961C85.4102 13.6602 85.9062 13.3906 86.4375 13.1875C86.9766 12.9766 87.5391 12.8242 88.125 12.7305C88.7109 12.6367 89.2969 12.5898 89.8828 12.5898C90.4219 12.5898 90.9727 12.625 91.5352 12.6953C92.1055 12.7578 92.6562 12.8789 93.1875 13.0586C93.7266 13.2305 94.2305 13.4688 94.6992 13.7734C95.1758 14.0703 95.5898 14.4531 95.9414 14.9219C96.3008 15.3906 96.582 15.9531 96.7852 16.6094C96.9961 17.2578 97.1016 18.0234 97.1016 18.9062C97.1016 19.8125 97 20.6055 96.7969 21.2852C96.5938 21.957 96.3125 22.5352 95.9531 23.0195C95.6016 23.4961 95.1914 23.8906 94.7227 24.2031C94.2539 24.5156 93.75 24.7617 93.2109 24.9414C92.6797 25.1133 92.1289 25.2344 91.5586 25.3047C90.9883 25.375 90.4297 25.4102 89.8828 25.4102ZM93.4805 22.5977C93.7227 22.5977 93.9609 22.5469 94.1953 22.4453C94.4375 22.3359 94.6484 22.1445 94.8281 21.8711C95.0156 21.5977 95.1641 21.2227 95.2734 20.7461C95.3906 20.2617 95.4492 19.6484 95.4492 18.9062C95.4492 18.2031 95.3906 17.625 95.2734 17.1719C95.1641 16.7188 95.0156 16.3633 94.8281 16.1055C94.6406 15.8398 94.4297 15.6562 94.1953 15.5547C93.9609 15.4531 93.7227 15.4023 93.4805 15.4023C93.293 15.4023 93.082 15.4414 92.8477 15.5195C92.6211 15.5977 92.4062 15.7656 92.2031 16.0234C92.0078 16.2734 91.8438 16.6367 91.7109 17.1133C91.5781 17.582 91.5117 18.2109 91.5117 19C91.5117 19.7891 91.5664 20.4219 91.6758 20.8984C91.7852 21.375 91.9297 21.7383 92.1094 21.9883C92.2891 22.2383 92.4961 22.4023 92.7305 22.4805C92.9727 22.5586 93.2227 22.5977 93.4805 22.5977ZM98.8125 14.6289C98.8125 14.3633 98.8359 14.1289 98.8828 13.9258C98.9297 13.7148 99.0195 13.543 99.1523 13.4102C99.2852 13.2773 99.4688 13.1758 99.7031 13.1055C99.9375 13.0352 100.242 13 100.617 13H105.75C106.109 13 106.398 13.0352 106.617 13.1055C106.836 13.1758 107.008 13.2812 107.133 13.4219C107.258 13.5625 107.34 13.7383 107.379 13.9492C107.426 14.1602 107.449 14.4062 107.449 14.6875V15.5547L110.051 13.0234C110.223 12.8594 110.383 12.7773 110.531 12.7773C110.617 12.7773 110.691 12.7969 110.754 12.8359C110.824 12.8672 110.883 12.9062 110.93 12.9531L111.457 13.5039C111.574 13.6211 111.633 13.75 111.633 13.8906C111.633 13.9766 111.605 14.0664 111.551 14.1602C111.504 14.2461 111.426 14.332 111.316 14.418L107.449 17.418V23.3477C107.449 23.6211 107.43 23.8633 107.391 24.0742C107.352 24.2773 107.266 24.4492 107.133 24.5898C107 24.7227 106.809 24.8242 106.559 24.8945C106.309 24.9648 105.969 25 105.539 25H100.617C100.242 25 99.9375 24.9648 99.7031 24.8945C99.4688 24.8242 99.2852 24.7227 99.1523 24.5898C99.0195 24.457 98.9297 24.2891 98.8828 24.0859C98.8359 23.8828 98.8125 23.6445 98.8125 23.3711V14.6289ZM120.633 17.9805L122.273 13.6914C122.312 13.5898 122.348 13.5 122.379 13.4219C122.41 13.3359 122.449 13.2617 122.496 13.1992C122.543 13.1367 122.605 13.0898 122.684 13.0586C122.762 13.0195 122.863 13 122.988 13H124.359C124.578 13 124.688 13.0625 124.688 13.1875C124.688 13.2891 124.648 13.4336 124.57 13.6211L117.949 29.2422C117.902 29.3438 117.863 29.4297 117.832 29.5C117.801 29.5781 117.762 29.6406 117.715 29.6875C117.676 29.7344 117.625 29.7695 117.562 29.793C117.5 29.8164 117.414 29.8281 117.305 29.8281H115.793C115.559 29.8281 115.441 29.7578 115.441 29.6172C115.441 29.5234 115.488 29.3828 115.582 29.1953L117.316 25.4453L111.352 13.9844C111.312 13.9062 111.281 13.8281 111.258 13.75C111.242 13.6719 111.234 13.6016 111.234 13.5391C111.234 13.3438 111.309 13.207 111.457 13.1289C111.613 13.043 111.77 13 111.926 13H117.867C118.148 13 118.363 13.0586 118.512 13.1758C118.668 13.2852 118.77 13.3945 118.816 13.5039L120.633 17.9805Z" fill="#EAEAEA"/>
<path fill-rule="evenodd" clip-rule="evenodd" d="M1.14844 9.09766C1.10156 9.30078 1.07812 9.53906 1.07812 9.8125V17H9.82031V10.1172C9.82031 9.92969 9.81641 9.72656 9.80859 9.50781C9.80078 9.28125 9.74609 9.07031 9.64453 8.875C9.55078 8.67188 9.38281 8.50391 9.14062 8.37109C8.90625 8.23828 8.5625 8.17188 8.10938 8.17188H2.88281C2.50781 8.17188 2.20312 8.20703 1.96875 8.27734C1.73438 8.34766 1.55078 8.45312 1.41797 8.59375C1.28516 8.72656 1.19531 8.89453 1.14844 9.09766ZM20.6367 17H12V14.6289C12 14.3633 12.0234 14.1289 12.0703 13.9258C12.1172 13.7148 12.207 13.543 12.3398 13.4102C12.4727 13.2773 12.6562 13.1758 12.8906 13.1055C13.125 13.0352 13.4297 13 13.8047 13H18.5977C18.9492 13 19.25 13.0352 19.5 13.1055C19.7578 13.1758 19.9414 13.2969 20.0508 13.4688C20.1523 13.3984 20.2734 13.3242 20.4141 13.2461C20.5625 13.1602 20.7227 13.082 20.8945 13.0117C21.0664 12.9414 21.25 12.8828 21.4453 12.8359C21.6406 12.7891 21.8438 12.7656 22.0547 12.7656C22.8047 12.7656 23.3867 13.0234 23.8008 13.5391C24.2227 14.0547 24.4336 14.8125 24.4336 15.8125V17H22.6289V15.6953C22.6289 15.25 22.5469 14.9102 22.3828 14.6758C22.2266 14.4414 21.9727 14.3242 21.6211 14.3242C21.4414 14.3242 21.2578 14.375 21.0703 14.4766C20.8906 14.5703 20.7461 14.6719 20.6367 14.7812V17ZM53.4289 17C53.3453 16.627 53.2349 16.2819 53.0977 15.9648C52.7461 15.1523 52.2617 14.4961 51.6445 13.9961C51.0273 13.4961 50.2969 13.1367 49.4531 12.918C48.6172 12.6992 47.7109 12.5898 46.7344 12.5898C46.1484 12.5898 45.5625 12.6367 44.9766 12.7305C44.3906 12.8242 43.8281 12.9766 43.2891 13.1875C42.7578 13.3906 42.2617 13.6602 41.8008 13.9961C41.3398 14.3242 40.9375 14.7266 40.5938 15.2031C40.2578 15.6797 39.9922 16.2344 39.7969 16.8672C39.7832 16.911 39.77 16.9553 39.7572 17H48.4711C48.478 16.9748 48.485 16.9501 48.4922 16.9258C48.625 16.5039 48.7812 16.1797 48.9609 15.9531C49.1484 15.7266 49.3477 15.5781 49.5586 15.5078C49.7695 15.4375 49.9648 15.4023 50.1445 15.4023C50.3867 15.4023 50.6172 15.4531 50.8359 15.5547C51.0625 15.6562 51.2578 15.832 51.4219 16.082C51.5771 16.3111 51.7008 16.6171 51.7931 17H53.4289ZM63.9727 17H55.3359V14.6289C55.3359 14.3633 55.3594 14.1289 55.4062 13.9258C55.4531 13.7148 55.543 13.543 55.6758 13.4102C55.8086 13.2773 55.9922 13.1758 56.2266 13.1055C56.4609 13.0352 56.7656 13 57.1406 13H61.9336C62.2852 13 62.5859 13.0352 62.8359 13.1055C63.0938 13.1758 63.2773 13.2969 63.3867 13.4688C63.4883 13.3984 63.6094 13.3242 63.75 13.2461C63.8984 13.1602 64.0586 13.082 64.2305 13.0117C64.4023 12.9414 64.5859 12.8828 64.7812 12.8359C64.9766 12.7891 65.1797 12.7656 65.3906 12.7656C66.1406 12.7656 66.7227 13.0234 67.1367 13.5391C67.5586 14.0547 67.7695 14.8125 67.7695 15.8125V17H65.9648V15.6953C65.9648 15.25 65.8828 14.9102 65.7188 14.6758C65.5625 14.4414 65.3086 14.3242 64.957 14.3242C64.7773 14.3242 64.5938 14.375 64.4062 14.4766C64.2266 14.5703 64.082 14.6719 63.9727 14.7812V17ZM78.9609 17H70.3242V16.8438H69.1055C68.9414 16.8438 68.8594 16.7578 68.8594 16.5859V15.6484C68.8594 15.4844 68.9414 15.4023 69.1055 15.4023H70.3242V12.7422C70.3242 12.625 70.3398 12.5078 70.3711 12.3906C70.4102 12.2734 70.5078 12.1836 70.6641 12.1211L77.1328 9.73047C77.4297 9.62109 77.6758 9.53906 77.8711 9.48438C78.0664 9.42969 78.2383 9.40234 78.3867 9.40234C78.4414 9.40234 78.5 9.41406 78.5625 9.4375C78.6328 9.45312 78.6953 9.48438 78.75 9.53125C78.8125 9.57812 78.8633 9.64453 78.9023 9.73047C78.9414 9.80859 78.9609 9.90625 78.9609 10.0234V15.4023H81.0703C81.2344 15.4023 81.3164 15.4844 81.3164 15.6484V16.5859C81.3164 16.7578 81.2344 16.8438 81.0703 16.8438H78.9609V17ZM96.896 17C96.863 16.8654 96.8261 16.7352 96.7852 16.6094C96.582 15.9531 96.3008 15.3906 95.9414 14.9219C95.5898 14.4531 95.1758 14.0703 94.6992 13.7734C94.2305 13.4688 93.7266 13.2305 93.1875 13.0586C92.6562 12.8789 92.1055 12.7578 91.5352 12.6953C90.9727 12.625 90.4219 12.5898 89.8828 12.5898C89.2969 12.5898 88.7109 12.6367 88.125 12.7305C87.5391 12.8242 86.9766 12.9766 86.4375 13.1875C85.9062 13.3906 85.4102 13.6602 84.9492 13.9961C84.4883 14.3242 84.0859 14.7266 83.7422 15.2031C83.4062 15.6797 83.1406 16.2344 82.9453 16.8672C82.9316 16.911 82.9184 16.9553 82.9056 17H91.7437C91.8705 16.5788 92.0236 16.2532 92.2031 16.0234C92.4062 15.7656 92.6211 15.5977 92.8477 15.5195C93.082 15.4414 93.293 15.4023 93.4805 15.4023C93.7227 15.4023 93.9609 15.4531 94.1953 15.5547C94.4297 15.6562 94.6406 15.8398 94.8281 16.1055C94.9912 16.3297 95.1248 16.6279 95.2288 17H96.896ZM107.988 17H98.8125V14.6289C98.8125 14.3633 98.8359 14.1289 98.8828 13.9258C98.9297 13.7148 99.0195 13.543 99.1523 13.4102C99.2852 13.2773 99.4688 13.1758 99.7031 13.1055C99.9375 13.0352 100.242 13 100.617 13H105.75C106.109 13 106.398 13.0352 106.617 13.1055C106.836 13.1758 107.008 13.2812 107.133 13.4219C107.258 13.5625 107.34 13.7383 107.379 13.9492C107.426 14.1602 107.449 14.4062 107.449 14.6875V15.5547L110.051 13.0234C110.223 12.8594 110.383 12.7773 110.531 12.7773C110.617 12.7773 110.691 12.7969 110.754 12.8359C110.824 12.8672 110.883 12.9062 110.93 12.9531L111.277 13.316C111.314 13.2352 111.374 13.1728 111.457 13.1289C111.613 13.043 111.77 13 111.926 13H117.867C118.148 13 118.363 13.0586 118.512 13.1758C118.668 13.2852 118.77 13.3945 118.816 13.5039L120.235 17H112.921L111.49 14.2504C111.445 14.3063 111.387 14.3621 111.316 14.418L107.988 17ZM123.138 17L124.57 13.6211C124.648 13.4336 124.688 13.2891 124.688 13.1875C124.688 13.0625 124.578 13 124.359 13H122.988C122.863 13 122.762 13.0195 122.684 13.0586C122.605 13.0898 122.543 13.1367 122.496 13.1992C122.449 13.2617 122.41 13.3359 122.379 13.4219C122.348 13.5 122.312 13.5898 122.273 13.6914L121.008 17H123.138ZM37.3091 17H35.3361L36.5625 13.6914C36.6328 13.4883 36.707 13.3242 36.7852 13.1992C36.8711 13.0664 37.0391 13 37.2891 13H38.5312C38.7578 13 38.8711 13.0664 38.8711 13.1992C38.8711 13.2852 38.8281 13.4258 38.7422 13.6211L37.3091 17ZM34.5003 17H27.0622L25.6406 13.9844C25.5703 13.8359 25.5352 13.6992 25.5352 13.5742C25.5352 13.3711 25.6094 13.2266 25.7578 13.1406C25.9062 13.0469 26.0586 13 26.2148 13H31.9336C32.1289 13 32.293 13.0078 32.4258 13.0234C32.5586 13.0391 32.668 13.0703 32.7539 13.1172C32.8398 13.1562 32.9102 13.207 32.9648 13.2695C33.0195 13.332 33.0664 13.4102 33.1055 13.5039L34.5003 17Z" fill="white" style="mix-blend-mode:overlay"/>
</svg>
