<svg width="20" height="20" viewBox="0 0 20 20" fill="none" xmlns="http://www.w3.org/2000/svg">
<path d="M16.7676 14.9141C16.3991 14.0414 15.8645 13.2486 15.1933 12.5801C14.5243 11.9096 13.7317 11.375 12.8594 11.0059C12.8516 11.002 12.8437 11 12.8359 10.9961C14.0527 10.1172 14.8437 8.68555 14.8437 7.07031C14.8437 4.39453 12.6758 2.22656 9.99999 2.22656C7.32421 2.22656 5.15624 4.39453 5.15624 7.07031C5.15624 8.68555 5.94725 10.1172 7.16405 10.998C7.15624 11.002 7.14843 11.0039 7.14061 11.0078C6.26561 11.377 5.48046 11.9063 4.80663 12.582C4.13614 13.2511 3.60156 14.0437 3.23241 14.916C2.86976 15.77 2.67417 16.6856 2.65624 17.6133C2.65572 17.6341 2.65937 17.6549 2.66699 17.6743C2.67461 17.6937 2.68604 17.7114 2.7006 17.7263C2.71516 17.7412 2.73256 17.7531 2.75178 17.7612C2.77099 17.7693 2.79164 17.7734 2.81249 17.7734H3.98436C4.0703 17.7734 4.13866 17.7051 4.14061 17.6211C4.17968 16.1133 4.78514 14.7012 5.85546 13.6309C6.96288 12.5234 8.43358 11.9141 9.99999 11.9141C11.5664 11.9141 13.0371 12.5234 14.1445 13.6309C15.2148 14.7012 15.8203 16.1133 15.8594 17.6211C15.8613 17.707 15.9297 17.7734 16.0156 17.7734H17.1875C17.2083 17.7734 17.229 17.7693 17.2482 17.7612C17.2674 17.7531 17.2848 17.7412 17.2994 17.7263C17.3139 17.7114 17.3254 17.6937 17.333 17.6743C17.3406 17.6549 17.3443 17.6341 17.3437 17.6133C17.3242 16.6797 17.1308 15.7715 16.7676 14.9141V14.9141ZM9.99999 10.4297C9.1035 10.4297 8.25975 10.0801 7.62499 9.44531C6.99022 8.81055 6.64061 7.9668 6.64061 7.07031C6.64061 6.17383 6.99022 5.33008 7.62499 4.69531C8.25975 4.06055 9.1035 3.71094 9.99999 3.71094C10.8965 3.71094 11.7402 4.06055 12.375 4.69531C13.0098 5.33008 13.3594 6.17383 13.3594 7.07031C13.3594 7.9668 13.0098 8.81055 12.375 9.44531C11.7402 10.0801 10.8965 10.4297 9.99999 10.4297Z" fill="white"/>
</svg>
