<svg width="24" height="24" viewBox="0 0 24 24" fill="none" xmlns="http://www.w3.org/2000/svg">
<path d="M11.9334 11.5333C13.7334 11.5333 15.1334 10.0667 15.1334 8.26665C15.1334 6.46665 13.6667 5.06665 11.8667 5.06665C10.0667 5.06665 8.66669 6.53332 8.66669 8.26665C8.66669 10.0667 10.1334 11.5333 11.9334 11.5333ZM11.8667 6.39998C11.9334 6.39998 11.9334 6.39998 11.8667 6.39998C12.9334 6.39998 13.8 7.26665 13.8 8.33332C13.8 9.39998 12.9334 10.2 11.8667 10.2C10.8 10.2 10 9.33332 10 8.33332C10 7.26665 10.8667 6.39998 11.8667 6.39998Z" fill="#676767"/>
<path d="M21.8 11.1334C20.5333 10 18.8667 9.40002 17.1333 9.46669H16.6C16.4667 10 16.2667 10.4667 16 10.8667C16.4 10.8 16.7333 10.8 17.1333 10.8C18.4 10.7334 19.6667 11.1334 20.6667 11.8667V16.6667H22V11.3334L21.8 11.1334Z" fill="#676767"/>
<path d="M15.6 5.20003C15.9334 4.40003 16.8667 4.00003 17.7334 4.33337C18.5334 4.6667 18.9334 5.60003 18.6 6.4667C18.3334 7.0667 17.7334 7.4667 17.1334 7.4667C17 7.4667 16.8 7.4667 16.6667 7.40003C16.7334 7.73337 16.7334 8.0667 16.7334 8.33336V8.73337C16.8667 8.73337 17 8.80003 17.1334 8.80003C18.8 8.80003 20.1334 7.4667 20.1334 5.8667C20.1334 4.20003 18.8 2.8667 17.2 2.8667C16.1334 2.8667 15.2 3.40003 14.6667 4.33337C15 4.53337 15.3334 4.80003 15.6 5.20003Z" fill="#676767"/>
<path d="M8 10.9333C7.73333 10.5333 7.53333 10.0667 7.4 9.53335H6.86667C5.13333 9.46668 3.46667 10.0667 2.2 11.1333L2 11.3333V16.6667H3.33333V11.8667C4.4 11.1333 5.6 10.7333 6.86667 10.8C7.26667 10.8 7.66667 10.8667 8 10.9333Z" fill="#676767"/>
<path d="M6.86668 8.73336C7.00001 8.73336 7.13334 8.73336 7.26667 8.66669V8.26669C7.26667 7.93336 7.26667 7.60002 7.33334 7.33336C7.20001 7.40002 7.00001 7.40002 6.86668 7.40002C6.00001 7.40002 5.26668 6.66669 5.26668 5.80002C5.26668 4.93336 6.00001 4.20002 6.86668 4.20002C7.53334 4.20002 8.13334 4.60002 8.40001 5.20002C8.66668 4.86669 9.06668 4.53336 9.40001 4.26669C8.53334 2.86669 6.73334 2.40003 5.33334 3.26669C3.93334 4.13336 3.46668 5.93336 4.33334 7.33336C4.86668 8.20002 5.80001 8.73336 6.86668 8.73336Z" fill="#676767"/>
<path d="M17.4 15.1333L17.2667 14.9333C15.9334 13.4667 14.0667 12.6 12.0667 12.6667C10.0667 12.6 8.13335 13.4667 6.80002 14.9333L6.66669 15.1333V20.2C6.66669 20.8 7.13335 21.3333 7.80002 21.3333H16.3334C16.9334 21.3333 17.4667 20.8 17.4667 20.2V15.1333H17.4ZM16.0667 20H8.00002V15.6C9.06669 14.5333 10.5334 14 12.0667 14C13.5334 13.9333 15 14.5333 16.0667 15.6V20Z" fill="#676767"/>
</svg>
